<?xml version="1.0" encoding="utf-8" ?><svg xmlns="http://www.w3.org/2000/svg" xmlns:xlink="http://www.w3.org/1999/xlink" width="989" height="252" viewBox="0 0 989 252"><path d="M110.088 47.9809C131.161 47.4265 153.362 47.5696 174.471 47.8462C225.694 48.5175 277.547 46.8373 328.69 47.9201C328.751 63.4138 329.104 80.4921 328.64 95.8765L304.886 95.9266C308.854 97.0829 313.724 99.0473 313.264 104.403C312.337 115.178 316.947 134.595 309.339 142.673C307.653 144.379 297.657 143.759 295.234 143.671C295.17 129.178 294.579 110.22 295.312 96.0043C292.801 95.9405 287.181 95.6151 285.04 96.222L284.558 97.0946L284.643 97.2463C285.911 99.554 285.781 141.554 284.694 143.628L283.592 144.017C282.267 143.814 281.044 143.888 279.71 143.922C274.173 143.579 265.567 143.804 259.782 143.777L219.785 143.652C183.474 143.558 147.162 143.648 110.852 143.923L109.918 143.854C107.303 144.024 102.791 143.85 100.038 143.829L99.952 191.911L96.1029 191.952C86.4387 192.018 81.9281 191.564 81.8807 180.094C81.8388 169.928 81.8465 159.713 82.1525 149.545C84.3844 146.102 85.2231 145.623 88.8815 143.875C81.4851 144.007 74.0866 143.981 66.6913 143.796C66.3273 128.341 66.5934 111.705 66.5889 96.1726C73.8158 96.0784 81.0437 96.0794 88.2706 96.1756C86.5599 95.018 84.1672 93.7136 83.0888 91.9215C83.0483 91.8543 83.0102 91.7857 82.97 91.7183C80.6998 87.9135 81.5527 59.1614 82.188 53.2618C87.2135 46.2811 92.2483 47.6971 100.017 47.9434L100.044 96.3548C104.563 96.2971 107.447 96.1765 111.983 96.5846C121.819 97.6793 257.794 97.4388 260.143 96.6051L262.649 96.3877L262.604 96.2029C251.555 95.6782 237.467 96.0037 226.132 95.9978L161.117 96.0698C149.259 95.9595 137.4 95.9822 125.542 96.138C123.213 95.7526 114.223 95.803 111.842 96.0869L110.36 95.8446C109.438 93.3089 110.069 53.6488 110.088 47.9809Z"/><path fill="#323334" d="M262.604 96.2029C266.28 95.8914 279.237 95.2106 282.484 96.3162L281.7 96.198L282.474 96.3179C277.146 96.9494 268.185 96.8921 262.649 96.3877L262.604 96.2029Z"/><path d="M284.891 144.547C289.829 144.148 296.33 144.369 301.395 144.391L328.684 144.497L328.626 191.809C311.72 192.19 295.299 191.915 278.409 191.865L203.077 191.792L141.672 191.809C131.924 191.814 119.648 192.185 110.094 191.766L110.076 144.779L224.714 144.825C244.773 144.945 264.833 144.852 284.891 144.547Z"/><path d="M587.149 85.1832C603.777 85.3238 615.262 89.1602 624.946 103.386L624.954 87.9027C632.302 87.4389 639.673 87.4295 647.022 87.8746C646.909 120.323 647.32 153.068 646.912 185.478C640.572 185.766 631.25 185.801 624.994 185.421L625 168.905C623.909 170.72 622.551 172.641 621.356 174.411C604.88 191.932 578.461 192.544 560.45 177.029C528.741 149.715 542.19 87.7592 587.149 85.1832ZM598.996 165.576C614.94 163.414 626.138 148.777 624.051 132.829C621.963 116.88 607.376 105.616 591.412 107.627C575.342 109.652 563.982 124.354 566.083 140.41C568.184 156.466 582.945 167.752 598.996 165.576Z"/><path d="M450.264 55.0509L478.389 55.0583C476.319 58.6547 468.362 67.9123 465.38 71.786C454.909 85.3885 442.524 99.1414 432.495 112.968L460.793 151.833C468.364 162.252 478.135 174.823 484.977 185.393C476.911 185.535 464.248 185.962 456.501 185.383C444.208 168.455 429.068 146.604 416.216 130.728C409.616 138.964 403.062 147.235 396.552 155.541C396.324 164.669 396.984 176.687 396.163 185.454C389.142 185.805 379.467 185.829 372.494 185.421L372.552 55.1124C380.304 54.877 388.648 55.0547 396.445 55.0901C397.033 76.69 396.584 100.901 396.491 122.649C401.187 117.671 407.966 108.314 412.494 102.755C425.227 87.1237 437.42 70.5737 450.264 55.0509Z"/><path d="M929.657 87.5991C936.796 87.59 943.864 87.5193 950.994 87.8937C948.069 94.0809 943.763 105.986 941.017 112.816L919.672 166.169C915.388 176.977 911.547 187.066 906.34 197.5C894.017 222.198 876.576 219.483 852.787 219.111C852.564 212.995 852.711 206.19 852.736 200.018C871.931 198.788 881.347 204.456 888.049 181.134C887.422 179.046 886.286 176.663 885.389 174.639C874.434 145.827 861.824 116.832 850.732 87.9029C858.45 87.6218 867.748 87.3596 875.395 87.9478L889.825 124.494C893.844 134.72 898.704 145.297 900.504 156.023C902.263 151.867 903.321 146.984 904.927 142.69C910.436 127.961 916.074 113.281 921.707 98.5977C923.009 95.2036 924.241 91.779 925.88 88.5309C926.867 87.5692 928.252 87.6801 929.657 87.5991Z"/><path d="M801.028 85.195C823.189 85.0839 841.715 91.7097 844.322 116.421C839.638 116.902 825.886 116.863 821.525 116.058C820.707 113.306 820.128 111.334 818.077 109.205C813.596 103.374 796.975 102.744 792.513 108.792C783.048 121.621 800.761 125.227 808.311 126.334C827.619 129.166 846.991 133.309 847.078 156.736C847.18 164.322 844.204 171.627 838.828 176.983C829.278 186.572 816.75 187.84 804.047 187.843C782.235 187.94 764.497 176.952 763.357 153.843C769.141 153.526 779.214 154.004 785.303 154.073C788.985 174.99 822.516 173.908 823.565 156.444C824.121 147.192 799.678 144.863 790.995 142.941C768.014 137.852 760.06 114.561 774.083 95.8679C779.293 88.8732 791.585 85.7145 801.028 85.195Z"/><path d="M705.136 85.1808C726.971 85.0792 745.945 91.5723 748.332 116.403C742.72 116.974 730.964 116.826 725.494 116.135C723.364 107.378 718.498 105.211 709.856 104.523C703.553 104.022 693.495 107.867 693.868 115.205C694.454 126.742 716.449 126.096 724.663 128.607C732.096 130.881 738.699 132.084 744.429 137.88C754.411 148.155 752.845 167.584 742.742 177.132C732.387 186.916 720.42 187.86 707.159 187.835C694.187 188.162 679.581 182.453 672.44 171.225C668.572 165.143 667.926 160.879 667.347 153.849C673.599 153.54 682.72 153.989 689.179 154.124C690.252 158.072 691.406 161.498 694.656 164.353C701.8 170.628 717.169 171.675 724.177 164.679C725.677 163.181 728.081 158.722 727.626 156.598C725.057 144.609 704.969 146.417 696.011 143.236C682.889 139.492 672.458 133.078 671.562 117.986C670.254 95.9613 685.028 86.3022 705.136 85.1808Z"/><path d="M499.894 51.7472C506.407 51.2295 516.616 51.5638 523.418 51.6208L523.397 144.687L523.483 168.923C523.502 173.5 523.72 181.275 522.926 185.517C515.852 185.613 506.913 185.948 500.036 185.352C499.362 172.083 499.904 153.418 499.9 139.889L499.894 51.7472Z"/><path d="M45.7965 96.2539C48.7094 96.0032 53.4936 96.1385 56.5518 96.1403C56.6282 112.026 56.6098 127.911 56.4966 143.796L48.4014 143.881C40.4516 143.977 37.741 138.883 38.1208 131.524C38.6384 121.495 36.6614 109.902 39.5334 100.32C40.2022 98.0891 43.7938 96.7157 45.7965 96.2539Z"/><path d="M338.614 47.9731C347.236 47.6287 356.782 46.4244 356.802 58.3725C356.819 68.8855 357.465 79.8764 356.1 90.2784C355.96 91.3453 354.585 92.9478 353.887 93.7538C349.987 96.8569 343.789 96.0572 338.802 95.956C338.248 80.2786 338.949 63.7717 338.614 47.9731Z"/><path d="M338.876 144.465C342.993 144.385 348.069 144.116 352.017 145.047C353.188 148.545 354.944 149.132 355.278 151.217C356.259 157.334 353.72 182.878 356.165 186.854C351.537 193.467 346.158 192.124 338.921 191.958C338.681 176.335 338.413 160.073 338.876 144.465Z"/><path d="M110.852 143.923C147.162 143.648 183.474 143.558 219.785 143.652L259.782 143.777C265.567 143.804 274.173 143.579 279.71 143.922C275.46 144.927 113.003 144.589 110.852 143.923Z"/><path d="M279.71 143.922C281.044 143.888 282.267 143.814 283.592 144.017L284.891 144.547C264.833 144.852 244.773 144.945 224.714 144.825L110.076 144.779L109.918 143.854L110.852 143.923C113.003 144.589 275.46 144.927 279.71 143.922Z"/><path d="M111.842 96.0869C114.223 95.803 123.213 95.7526 125.542 96.138C133.727 97.081 152.347 96.5694 161.232 96.5485L232.262 96.5932C235.922 96.5881 257.945 96.215 260.143 96.6051C257.794 97.4388 121.819 97.6793 111.983 96.5846L111.842 96.0869Z"/><path d="M352.017 145.047C354.279 146.563 354.848 147.42 356.393 149.682C356.652 154.989 356.995 182.62 356.165 186.854C353.72 182.878 356.259 157.334 355.278 151.217C354.944 149.132 353.188 148.545 352.017 145.047Z"/><path d="M161.117 96.0698L226.132 95.9978C237.467 96.0037 251.555 95.6782 262.604 96.2029L262.649 96.3877L260.143 96.6051C257.945 96.215 235.922 96.5881 232.262 96.5932L161.232 96.5485L161.117 96.0698Z"/><path d="M125.542 96.138C137.4 95.9822 149.259 95.9595 161.117 96.0698L161.232 96.5485C152.347 96.5694 133.727 97.081 125.542 96.138Z"/></svg>