<?xml version="1.0" encoding="utf-8" ?><svg xmlns="http://www.w3.org/2000/svg" xmlns:xlink="http://www.w3.org/1999/xlink" width="343" height="166" viewBox="0 0 343 166"><path d="M82.6612 10.8777C110.074 11.3386 138.376 10.9983 165.819 10.9979L305.461 10.9776L305.539 43.3944C305.54 47.6282 305.763 56.3446 305.359 60.196C298.86 60.1647 287.103 59.5562 281.117 60.231C278.813 60.0796 274.383 60.2565 271.917 60.2733C270.022 60.002 262.61 59.761 260.926 60.2852C260.918 60.7686 260.983 60.6562 261.019 60.8708C261.437 63.3523 261.149 68.0346 261.137 70.6095L261.131 96.31C261.133 99.1077 260.963 106.766 261.235 109.267C257.321 108.774 246.831 109.013 242.526 109.002L204.767 108.966L102.36 109L63.7537 109.086C55.9521 109.118 45.4 109.357 37.7087 108.967C38.2366 104.789 38.0695 93.4501 37.9936 88.7099C37.8512 79.8286 38.329 69.5072 37.9445 60.7821L52.6609 60.5675C54.5908 60.5437 58.74 60.3922 60.4686 60.631C62.2987 60.9332 71.8646 60.7621 74.0122 60.7219C76.7682 60.7422 80.0173 60.8499 82.7342 60.7575L160.198 60.7991C188.554 60.8104 217.335 61.0427 245.663 60.7293C248.147 60.8938 257.859 60.9272 259.801 60.2706C254.681 60.4093 249.011 60.223 243.815 60.2214C239.621 60.3916 234.13 60.2322 229.85 60.2269L202.777 60.204L122.213 60.236C109.39 60.2522 95.4917 59.9766 82.7481 60.2912C82.2378 59.2441 82.4801 14.6565 82.6612 10.8777Z"/><path d="M82.7162 109.812C93.0491 110.114 104.389 110.031 114.746 110.043L164.389 110.063L305.568 109.995C305.349 115.23 305.537 121.656 305.54 126.994L305.525 158.004C304.113 158.167 299.881 158.073 298.36 158.073L283.924 158.069L237.146 158.104L82.5113 158.114C82.4238 153.727 82.3125 110.706 82.7162 109.812Z"/><path d="M16.8676 60.8132C19.5795 60.4469 24.713 60.7059 27.6038 60.7871C27.8755 65.078 27.6876 71.9699 27.6938 76.4831L27.7357 109.01L20.2014 109.067C17.5264 109.032 15.3084 109.105 13.0199 107.534C11.3393 106.361 9.35269 103.108 9.221 101.08C8.68874 92.7656 9.11779 84.3208 8.97934 75.9834C8.87076 69.445 8.84549 62.0998 16.8676 60.8132Z"/><path d="M62.3153 60.2847C59.4941 59.8703 57.3144 58.7639 55.5091 56.5086C53.3542 53.8167 53.9218 49.268 53.9203 45.9054L53.9261 33.3757C53.9324 28.1129 53.8423 22.7916 54.1063 17.544C54.4441 15.8037 55.8668 14.0443 57.2926 13.0557C60.8232 10.6078 65.8517 10.8567 69.9675 10.971C72.7404 11.0479 72.1788 14.6495 72.014 16.4388C71.9338 17.3095 71.9358 18.1941 71.9392 19.0603C72.0063 26.2202 72.0322 33.3803 72.0171 40.5405L72.0227 53.527C72.0224 55.1202 72.0959 58.9702 71.9202 60.3819C69.8917 60.1867 64.4023 60.1499 62.3153 60.2847Z"/><path d="M316.147 10.9263C325.315 11.0356 334.5 9.91956 334.175 22.1225C333.896 32.5712 334.777 43.4227 333.838 53.8378C333.722 55.1307 332.172 56.9188 331.325 57.7946C330.807 58.1234 328.514 59.4724 328.144 59.5906C326.237 60.1996 317.756 60.4327 316.381 59.8404C315.905 57.7254 315.939 43.8848 316.017 40.9807C316.274 31.4581 315.625 20.2665 316.147 10.9263Z"/><path d="M62.5816 109.876C65.3125 109.968 69.1565 109.777 71.9716 109.727C72.2863 112.749 72.0186 121.747 72.0192 125.317L71.9846 158.259C69.1701 158.19 66.1072 158.253 63.2732 158.255C58.3426 158.282 56.538 156.792 54.0459 152.74C53.8832 148.48 53.3088 117.264 54.2957 115.254C54.8085 114.21 55.3259 113.226 56.1304 112.371C57.9886 110.396 59.9691 109.97 62.5816 109.876Z"/><path d="M271.92 60.5676C275.147 60.7912 278.911 60.7681 282.151 60.7477C286.729 60.6797 289.873 65.1326 289.947 69.3986C290.135 80.2519 290.092 91.2001 289.874 102.043C289.678 104.082 286.741 107.966 284.774 108.526C281.169 109.553 275.621 109.022 271.772 109.271C271.895 98.1788 271.945 87.0859 271.924 75.9931C271.917 73.9749 271.594 61.7191 271.92 60.5676Z"/><path d="M316.027 109.863C320.467 110.428 327.583 108.854 330.812 111.531C332.85 113.329 333.932 114.946 334.006 117.668C334.233 126.048 334.057 134.411 334.12 142.793C334.144 145.984 334.241 149.274 333.891 152.438C333.773 153.506 332.362 155.04 331.672 155.828C327.019 159.735 321.859 157.901 316.083 158.198C315.809 142.113 316.259 125.897 316.027 109.863Z"/><path d="M82.7481 60.2912C95.4917 59.9766 109.39 60.2522 122.213 60.236L202.777 60.204L229.85 60.2269C234.13 60.2322 239.621 60.3916 243.815 60.2214C244.389 60.3759 245.111 60.5473 245.663 60.7293C217.335 61.0427 188.554 60.8104 160.198 60.7991L82.7342 60.7575L82.7481 60.2912Z"/><path fill="#181917" fill-opacity="0.47843137" d="M243.815 60.2214C249.011 60.223 254.681 60.4093 259.801 60.2706C257.859 60.9272 248.147 60.8938 245.663 60.7293C245.111 60.5473 244.389 60.3759 243.815 60.2214Z"/><path fill="#181917" fill-opacity="0.60392159" d="M62.3153 60.2847C64.4023 60.1499 69.8917 60.1867 71.9202 60.3819C72.668 60.5407 73.2532 60.6277 74.0122 60.7219C71.8646 60.7621 62.2987 60.9332 60.4686 60.631C60.9244 60.5945 61.8316 60.3828 62.3153 60.2847Z"/><path fill="#181917" fill-opacity="0.49411765" d="M271.917 60.2733C274.383 60.2565 278.813 60.0796 281.117 60.231L282.151 60.7477C278.911 60.7681 275.147 60.7912 271.92 60.5676L271.917 60.2733Z"/></svg>