<svg version="1.2" xmlns="http://www.w3.org/2000/svg" viewBox="0 0 984 246" width="984" height="246">
	<style>
		.s0 { fill: #ffffff } 
	</style>
	<path id="Path 0" fill-rule="evenodd" class="s0" d="m88.5 41.5l-0.36 6.5c-0.2 3.58-0.09 14.71 0.86 43h9l0.2-50.12 223.3 0.85 0.5 49.27-20 1 2.25 3.08c2.08 2.84 2.27 4.33 2.56 19.25 0.3 15.22 0.18 16.44-4.31 25.54l19 0.63 0.5 47.5-2.75 1.06c-1.9 0.74-36.49 0.97-221.25 0.44v-48.5h-9l0.01 21.25c0.01 11.69-0.33 22.75-0.75 24.58-0.75 3.28-0.84 3.33-5.76 3.08-2.75-0.14-6.24-0.63-7.75-1.08-1.51-0.46-3.29-1.84-3.95-3.08-0.71-1.34-1.37-8.49-1.63-17.75-0.24-8.53-0.15-17.19 0.19-19.25 0.35-2.06 1.54-4.65 4.64-7.75l-19.5 0.05-0.76-3.28c-0.42-1.8-0.76-11.6-0.76-21.77 0-10.18 0.34-19.97 1.52-25.05l20 0.1-2.5-2.6c-2.49-2.6-2.5-2.69-2.5-21.88 0-13.11 0.38-19.84 1.18-21.07 0.65-0.99 2.67-2.41 4.5-3.14 1.83-0.73 5.57-1.22 13.32-0.86zm189.5 98.5h9v-48h-9zm57.36-99.01c1.73-0.01 4.69 0.33 6.59 0.75 1.89 0.42 4.71 2 9.05 6.26v17c0 12.89-0.36 17.85-1.5 20.5-0.83 1.92-2.4 3.95-3.5 4.5-1.1 0.55-4.7 1-8 1-5.41 0-6.05-0.22-6.49-2.25-0.26-1.24-0.49-11.03-0.51-21.75-0.01-10.72 0.25-20.96 0.59-22.75 0.54-2.84 1.02-3.25 3.77-3.26zm185.64 4.01v138h-25l0.01-66.75c0.01-36.71 0.28-67.76 0.6-69 0.56-2.17 0.98-2.25 24.39-2.25zm-155 4h12c7 0 12.21 0.42 12.5 1 0.27 0.55 0.61 15.85 0.75 34 0.14 18.15 0.36 33 0.5 33 0.14 0 10.91-13.61 23.94-30.25 13.03-16.64 25.06-31.93 29.81-37.71l14.25-0.02c10.76-0.02 14.24 0.29 14.22 1.23-0.01 0.69-8.9 12.11-19.75 25.38-10.84 13.28-21.16 26.1-26.13 32.87l6.48 9c3.56 4.95 13.55 18.63 22.2 30.41 8.65 11.77 17.64 24.26 19.98 27.75 2.91 4.34 3.86 6.5 3 6.86-0.69 0.29-7.32 0.4-28.21-0.02l-19.31-26.5c-10.62-14.57-19.77-26.95-20.32-27.5q-1.02-1.01-2.71 1.11c-0.94 1.17-5.3 6.57-17.7 21.89l-0.5 31.5h-25zm221.25 31.05c3.71-0.03 9.11 0.46 12 1.07 2.89 0.62 7.5 2.27 10.25 3.67 2.75 1.39 7.14 4.71 14.5 12.21v-15h23v101h-23l0.04-15.5-3.77 4.42c-2.07 2.42-5.57 5.53-7.77 6.9-2.2 1.37-6.48 3.33-9.5 4.36-3.02 1.03-8.42 2.13-12 2.45-4.55 0.41-8.45 0.07-13-1.12-3.58-0.94-8.64-2.79-11.25-4.11-2.61-1.32-7.39-4.99-10.61-8.15-3.38-3.32-7.18-8.39-9-12-1.73-3.44-3.78-8.84-4.56-12-0.79-3.16-1.71-8.68-2.05-12.25-0.39-4.18-0.07-9.35 0.91-14.5 0.85-4.4 3.08-11.15 4.96-15 2.03-4.14 5.61-9.19 8.77-12.36 2.93-2.94 7.35-6.52 9.83-7.96 2.48-1.43 6.98-3.38 10-4.34 3.02-0.95 8.54-1.76 12.25-1.79zm-7 26.28c-1.79 0.92-4.88 3.13-6.88 4.92-2 1.79-4.75 5.5-6.13 8.25-1.37 2.75-2.73 7.47-3.01 10.5-0.36 3.84 0.05 7.29 1.38 11.43 1.18 3.7 3.4 7.61 5.89 10.39 2.2 2.45 6.02 5.6 8.5 7.01 3.42 1.95 6.29 2.66 12 2.97 5.59 0.29 8.65-0.06 12-1.39 2.48-0.98 6.69-3.83 9.36-6.34 2.68-2.52 5.79-6.37 6.91-8.57 1.24-2.42 2.24-6.76 2.53-11 0.42-6.17 0.14-7.76-2.41-13.39-1.74-3.85-4.49-7.81-6.89-9.94-2.2-1.95-6.02-4.42-8.5-5.49-2.48-1.08-6.98-2.1-10-2.27-3.02-0.18-6.85 0.03-8.5 0.47-1.65 0.43-4.46 1.54-6.25 2.45zm127.75-26.27c4.12-0.05 9.98 0.39 13 0.97 3.02 0.57 8.15 2.27 11.39 3.76 3.34 1.54 7.56 4.55 9.75 6.96 2.12 2.34 4.59 5.71 5.48 7.5 0.9 1.79 1.91 5.62 2.88 13.77l-22.5-0.02-3.5-5c-2.2-3.14-4.89-5.6-7.25-6.61-2.45-1.05-5.71-1.48-9.43-1.25-4.68 0.3-6.21 0.88-8.77 3.36-2.22 2.16-3.09 3.91-3.07 6.25 0.01 1.79 0.47 4.15 1.02 5.25 0.55 1.1 2.91 2.88 5.25 3.95 2.34 1.07 8.75 2.68 14.25 3.58 5.5 0.89 12.7 2.56 16 3.7 3.3 1.15 7.58 3.06 9.5 4.26 1.92 1.2 4.74 3.61 6.25 5.35 1.51 1.74 3.2 4.85 3.74 6.91 0.55 2.06 1.01 6.68 1.02 10.25 0.01 3.57-0.66 8.53-1.48 11-0.82 2.47-3.19 6.46-5.26 8.86-2.24 2.58-6.21 5.53-9.77 7.23-3.3 1.59-9.26 3.56-13.25 4.4-3.99 0.83-9.61 1.5-12.5 1.49-2.89-0.01-8.17-0.62-11.75-1.37-3.58-0.74-8.75-2.34-11.5-3.55-2.75-1.21-6.91-3.74-9.25-5.63-2.78-2.25-5.25-5.58-7.16-9.68-1.6-3.44-3.18-8.39-4.09-15.75l22.49 0.5 1.85 4c1.02 2.2 2.83 5.04 4.01 6.3 1.18 1.27 4.4 2.96 7.15 3.76 2.75 0.8 6.58 1.45 8.5 1.44 1.92 0 5.3-0.52 7.5-1.14 2.2-0.62 5.24-2.42 6.75-4 1.99-2.06 2.76-3.9 2.78-6.61 0.01-2.61-0.67-4.42-2.25-5.95-1.26-1.21-4.08-2.85-6.28-3.64-2.2-0.79-7.38-1.93-11.5-2.52-4.13-0.59-9.75-1.75-12.5-2.58-2.75-0.82-7.46-2.97-10.46-4.78-3-1.8-6.94-5.19-8.75-7.53-1.81-2.34-3.79-6.16-4.4-8.5-0.62-2.36-0.84-6.81-0.5-10 0.33-3.16 1.87-8.56 3.41-12 1.72-3.84 4.13-7.28 6.25-8.93 1.9-1.47 4.8-3.19 6.45-3.83 1.65-0.63 5.25-1.76 8-2.5 2.75-0.75 8.37-1.39 12.5-1.43zm98.5-0.01c5.12-0.03 11.58 0.61 15 1.5 3.3 0.86 7.97 2.55 10.39 3.75 2.41 1.21 6.38 4.45 8.82 7.2 2.77 3.13 4.97 6.87 5.87 10 0.79 2.75 1.44 6.24 1.42 10.5h-22l-2.75-4.16c-1.51-2.29-4.02-5.1-5.57-6.25-2.27-1.68-4.29-2.09-10.19-2.09-6.83 0-7.57 0.21-10.4 3-1.67 1.65-3.27 4.35-3.56 6-0.31 1.8 0.08 3.9 0.98 5.25 0.82 1.24 2.73 2.89 4.24 3.66 1.51 0.78 8.37 2.55 15.25 3.94 6.87 1.38 14.52 3.25 17 4.13 2.48 0.89 6.41 2.72 8.75 4.07 2.34 1.35 5.32 3.91 6.63 5.7 1.3 1.79 2.94 5.05 3.63 7.25 0.69 2.2 1.22 6.93 1.17 10.5-0.07 5.05-0.74 7.84-3.03 12.5-1.62 3.3-4.45 7.31-6.3 8.91-1.84 1.6-6.05 4.17-9.35 5.71-3.3 1.55-9.38 3.33-13.5 3.96-4.13 0.64-10.65 0.9-14.5 0.58-3.85-0.32-9.92-1.48-13.5-2.57-3.58-1.1-8.98-3.75-12-5.89-3.02-2.14-6.97-6.1-8.76-8.79-2.2-3.32-3.54-6.86-4.13-10.91-0.48-3.3-0.7-6.34-0.49-6.75 0.21-0.41 5.22-0.77 21.88-0.82l1.68 4.29c0.92 2.35 3.06 5.52 4.75 7.03 1.69 1.51 4.76 3.2 6.82 3.74 2.06 0.55 5.77 1 8.25 1 2.48 0 6.19-0.45 8.25-1 2.08-0.55 4.86-2.33 6.25-3.99q2.5-3 2.53-6.75c0.02-2.35-0.63-4.36-1.75-5.38-0.98-0.9-3.24-2.36-5.03-3.25-1.79-0.89-8.76-2.69-15.5-3.99-6.74-1.3-14.5-3.35-17.25-4.55-2.75-1.2-6.73-3.84-8.83-5.88-2.11-2.03-4.8-5.5-5.97-7.7-1.68-3.16-2.13-5.8-2.16-12.57-0.04-7.61 0.3-9.24 2.98-14.5 2.25-4.41 4.3-6.78 8-9.24 2.74-1.82 7.68-4.16 10.98-5.2 3.91-1.22 9.14-1.9 15-1.94zm60.88 2.05c11.01-0.09 11.7 0.02 13.06 2.15 0.79 1.24 5.58 12.82 10.64 25.75 5.06 12.93 10.46 27.32 11.99 32 1.53 4.68 3 7.82 3.27 7 0.27-0.82 1.84-5.32 3.5-10 1.65-4.68 7.1-19.3 12.09-32.5 5-13.2 9.09-24.11 9.08-24.25-0.01-0.14 5.84-0.25 12.99-0.25 9.72 0 13.01 0.32 13.02 1.25 0.02 0.69-6.69 18.13-14.9 38.75-8.21 20.63-17.05 42.9-19.64 49.5-2.6 6.6-6.06 14.7-7.68 18-1.63 3.3-4.76 8.7-6.96 12-2.21 3.3-5.89 7.41-8.18 9.12-2.29 1.72-6.64 3.96-9.66 4.97-4.28 1.43-8.61 1.85-33.5 1.91l-0.3-8c-0.16-4.4-0.05-9.01 0.25-10.25 0.53-2.16 1.03-2.26 12.49-2.5 11.75-0.25 11.98-0.3 15.09-3.25 1.74-1.65 4.24-5.14 5.56-7.75 1.33-2.61 2.41-5.76 2.4-7 0-1.24-2.64-8.78-5.86-16.75-3.22-7.97-11.57-28.68-18.54-46-6.98-17.32-12.49-32.02-12.26-32.65 0.29-0.78 4.26-1.19 12.05-1.25zm-823.12 8.9l0.24 11.75c0.13 6.46-0.04 17.76-1 38.46l-6.16-0.36c-4.91-0.28-6.7-0.86-8.8-2.85-1.45-1.37-3.05-4.07-3.55-6-0.51-1.93-0.8-10.25-0.66-18.5 0.22-12.43 0.58-15.48 2.07-17.8 0.99-1.55 2.77-3.2 3.95-3.69 1.18-0.49 4.8-0.91 13.91-1.01zm293.02 48.98c2.32-0.01 5.68 0.44 7.47 1 1.79 0.56 3.81 2.03 4.49 3.27 0.8 1.46 1.37 8.55 1.63 20.25 0.32 14.93 0.13 18.43-1.15 20.5-0.84 1.38-2.81 3.08-4.38 3.79-1.56 0.71-5.32 1.16-13.84 0.71l-0.37-22.78c-0.27-16-0.03-23.37 0.77-24.75 0.86-1.46 2.25-1.97 5.38-1.99z"/>
</svg>